<?xml version="1.0" encoding="UTF-8" standalone="no"?>
<!-- Created with Inkscape (http://www.inkscape.org/) -->

<svg
   id="svg5"
   version="1.1"
   viewBox="0 0 210 297"
   height="297mm"
   width="210mm"
   sodipodi:docname="belief_update.svg"
   inkscape:version="1.2.1 (9c6d41e410, 2022-07-14)"
   inkscape:export-filename="belief_update.pdf"
   inkscape:export-xdpi="96"
   inkscape:export-ydpi="96"
   xmlns:inkscape="http://www.inkscape.org/namespaces/inkscape"
   xmlns:sodipodi="http://sodipodi.sourceforge.net/DTD/sodipodi-0.dtd"
   xmlns="http://www.w3.org/2000/svg"
   xmlns:svg="http://www.w3.org/2000/svg">
  <sodipodi:namedview
     id="namedview7"
     pagecolor="#ffffff"
     bordercolor="#000000"
     borderopacity="0.25"
     inkscape:showpageshadow="2"
     inkscape:pageopacity="0.0"
     inkscape:pagecheckerboard="0"
     inkscape:deskcolor="#d1d1d1"
     inkscape:document-units="mm"
     showgrid="false"
     inkscape:zoom="1.4142136"
     inkscape:cx="348.9572"
     inkscape:cy="160.86679"
     inkscape:window-width="1920"
     inkscape:window-height="1002"
     inkscape:window-x="1912"
     inkscape:window-y="-8"
     inkscape:window-maximized="1"
     inkscape:current-layer="layer1" />
  <defs
     id="defs2" />
  <g
     inkscape:label="Layer 1"
     inkscape:groupmode="layer"
     id="layer1">
    <text
       xml:space="preserve"
       style="font-size:3.88056px;line-height:0;fill:#7000aa;fill-opacity:1;stroke:#7000aa;stroke-width:0.1;stroke-dasharray:none;stroke-dashoffset:0;stroke-opacity:1"
       x="57.593575"
       y="38.218239"
       id="text7626-1"><tspan
         sodipodi:role="line"
         id="tspan7624-9"
         style="font-style:normal;font-variant:normal;font-weight:normal;font-stretch:normal;font-size:3.88056px;font-family:Arial;-inkscape-font-specification:Arial;fill:#7000aa;fill-opacity:1;stroke:#7000aa;stroke-width:0.1;stroke-dasharray:none;stroke-opacity:1"
         x="57.593575"
         y="38.218239">Belief at $z_t$</tspan></text>
    <path
       style="fill:#ffffff;fill-opacity:0;stroke:#000000;stroke-width:0.2;stroke-dasharray:none"
       d="M 48.7209 83.9464 C 48.8501 83.937 48.9792 83.9273 49.1084 83.9173 C 49.2376 83.9074 49.3668 83.8972 49.4959 83.8867 C 49.6251 83.8762 49.7543 83.8655 49.8834 83.8544 C 50.0126 83.8434 50.1418 83.832 50.271 83.8204 C 50.4001 83.8088 50.5293 83.7968 50.6585 83.7846 C 50.7877 83.7723 50.9168 83.7597 51.046 83.7469 C 51.1752 83.734 51.3043 83.7207 51.4335 83.7072 C 51.5627 83.6936 51.6919 83.6797 51.821 83.6654 C 51.9502 83.6512 52.0794 83.6366 52.2086 83.6216 C 52.3377 83.6066 52.4669 83.5912 52.5961 83.5755 C 52.7252 83.5598 52.8544 83.5436 52.9836 83.5271 C 53.1128 83.5106 53.2419 83.4936 53.3711 83.4763 C 53.5003 83.4589 53.6295 83.4412 53.7586 83.423 C 53.8878 83.4048 54.017 83.3861 54.1462 83.3671 C 54.2753 83.348 54.4045 83.3284 54.5337 83.3084 C 54.6628 83.2884 54.792 83.268 54.9212 83.247 C 55.0504 83.2261 55.1795 83.2046 55.3087 83.1827 C 55.4379 83.1608 55.5671 83.1383 55.6962 83.1154 C 55.8254 83.0924 55.9546 83.0689 56.0837 83.0449 C 56.2129 83.0209 56.3421 82.9963 56.4713 82.9712 C 56.6004 82.9461 56.7296 82.9204 56.8588 82.8941 C 56.988 82.8679 57.1171 82.841 57.2463 82.8136 C 57.3755 82.7862 57.5046 82.7582 57.6338 82.7295 C 57.763 82.7009 57.8922 82.6716 58.0213 82.6417 C 58.1505 82.6118 58.2797 82.5813 58.4089 82.5501 C 58.538 82.519 58.6672 82.4871 58.7964 82.4546 C 58.9255 82.4221 59.0547 82.3889 59.1839 82.355 C 59.3131 82.3211 59.4422 82.2865 59.5714 82.2512 C 59.7006 82.2159 59.8298 82.1799 59.9589 82.1431 C 60.0881 82.1063 60.2173 82.0688 60.3465 82.0305 C 60.4756 81.9923 60.6048 81.9532 60.734 81.9134 C 60.8631 81.8736 60.9923 81.833 61.1215 81.7916 C 61.2507 81.7503 61.3798 81.7081 61.509 81.665 C 61.6382 81.622 61.7674 81.5782 61.8965 81.5335 C 62.0257 81.4888 62.1549 81.4432 62.284 81.3968 C 62.4132 81.3504 62.5424 81.3032 62.6716 81.255 C 62.8007 81.2068 62.9299 81.1578 63.0591 81.1078 C 63.1883 81.0579 63.3174 81.007 63.4466 80.9552 C 63.5758 80.9034 63.7049 80.8507 63.8341 80.797 C 63.9633 80.7433 64.0925 80.6887 64.2216 80.6331 C 64.3508 80.5775 64.48 80.5209 64.6092 80.4633 C 64.7383 80.4058 64.8675 80.3472 64.9967 80.2876 C 65.1258 80.228 65.255 80.1675 65.3842 80.1058 C 65.5134 80.0442 65.6425 79.9816 65.7717 79.9179 C 65.9009 79.8542 66.0301 79.7894 66.1592 79.7236 C 66.2884 79.6578 66.4176 79.5909 66.5468 79.5229 C 66.6759 79.4549 66.8051 79.3858 66.9343 79.3157 C 67.0634 79.2455 67.1926 79.1742 67.3218 79.1018 C 67.451 79.0294 67.5801 78.9559 67.7093 78.8812 C 67.8385 78.8065 67.9677 78.7307 68.0968 78.6538 C 68.226 78.5768 68.3552 78.4987 68.4843 78.4194 C 68.6135 78.3401 68.7427 78.2597 68.8719 78.178 C 69.001 78.0964 69.1302 78.0136 69.2594 77.9295 C 69.3886 77.8455 69.5177 77.7603 69.6469 77.6739 C 69.7761 77.5874 69.9052 77.4998 70.0344 77.411 C 70.1636 77.3221 70.2928 77.232 70.4219 77.1407 C 70.5511 77.0494 70.6803 76.9569 70.8095 76.8631 C 70.9386 76.7693 71.0678 76.6743 71.197 76.578 C 71.3262 76.4817 71.4553 76.3842 71.5845 76.2855 C 71.7137 76.1867 71.8428 76.0867 71.972 75.9854 C 72.1012 75.8841 72.2304 75.7816 72.3595 75.6778 C 72.4887 75.5739 72.6179 75.4689 72.7471 75.3625 C 72.8762 75.2562 73.0054 75.1486 73.1346 75.0397 C 73.2637 74.9309 73.3929 74.8207 73.5221 74.7093 C 73.6513 74.5979 73.7804 74.4853 73.9096 74.3713 C 74.0388 74.2574 74.168 74.1422 74.2971 74.0258 C 74.4263 73.9093 74.5555 73.7916 74.6846 73.6726 C 74.8138 73.5536 74.943 73.4334 75.0722 73.3119 C 75.2013 73.1905 75.3305 73.0677 75.4597 72.9438 C 75.5889 72.8198 75.718 72.6946 75.8472 72.5682 C 75.9764 72.4418 76.1055 72.3141 76.2347 72.1852 C 76.3639 72.0563 76.4931 71.9262 76.6222 71.795 C 76.7514 71.6637 76.8806 71.5312 77.0098 71.3975 C 77.1389 71.2638 77.2681 71.1289 77.3973 70.9929 C 77.5265 70.8569 77.6556 70.7197 77.7848 70.5813 C 77.914 70.443 78.0431 70.3035 78.1723 70.1629 C 78.3015 70.0222 78.4307 69.8805 78.5598 69.7376 C 78.689 69.5948 78.8182 69.4509 78.9474 69.3058 C 79.0765 69.1608 79.2057 69.0147 79.3349 68.8676 C 79.464 68.7205 79.5932 68.5723 79.7224 68.4231 C 79.8516 68.2739 79.9807 68.1237 80.1099 67.9725 C 80.2391 67.8213 80.3683 67.6691 80.4974 67.516 C 80.6266 67.3629 80.7558 67.2088 80.8849 67.0538 C 81.0141 66.8988 81.1433 66.743 81.2725 66.5862 C 81.4016 66.4294 81.5308 66.2718 81.66 66.1133 C 81.7892 65.9549 81.9183 65.7956 82.0475 65.6355 C 82.1767 65.4754 82.3058 65.3146 82.435 65.153 C 82.5642 64.9914 82.6934 64.829 82.8225 64.666 C 82.9517 64.503 83.0809 64.3392 83.2101 64.1749 C 83.3392 64.0105 83.4684 63.8455 83.5976 63.6799 C 83.7268 63.5142 83.8559 63.348 83.9851 63.1813 C 84.1143 63.0146 84.2434 62.8473 84.3726 62.6795 C 84.5018 62.5117 84.631 62.3435 84.7601 62.1748 C 84.8893 62.0061 85.0185 61.837 85.1477 61.6676 C 85.2768 61.4981 85.406 61.3283 85.5352 61.1581 C 85.6643 60.988 85.7935 60.8175 85.9227 60.6468 C 86.0519 60.4762 86.181 60.3052 86.3102 60.1341 C 86.4394 59.963 86.5686 59.7917 86.6977 59.6203 C 86.8269 59.4489 86.9561 59.2774 87.0852 59.1058 C 87.2144 58.9342 87.3436 58.7626 87.4728 58.591 C 87.6019 58.4194 87.7311 58.2479 87.8603 58.0764 C 87.9895 57.9049 88.1186 57.7336 88.2478 57.5623 C 88.377 57.3911 88.5062 57.2201 88.6353 57.0493 C 88.7645 56.8785 88.8937 56.7079 89.0228 56.5376 C 89.152 56.3674 89.2812 56.1974 89.4104 56.0278 C 89.5395 55.8583 89.6687 55.6891 89.7979 55.5204 C 89.9271 55.3516 90.0562 55.1834 90.1854 55.0157 C 90.3146 54.848 90.4437 54.6808 90.5729 54.5142 C 90.7021 54.3476 90.8313 54.1817 90.9604 54.0164 C 91.0896 53.8512 91.2188 53.6866 91.348 53.5228 C 91.4771 53.359 91.6063 53.196 91.7355 53.0338 C 91.8646 52.8716 91.9938 52.7103 92.123 52.5499 C 92.2522 52.3895 92.3813 52.23 92.5105 52.0716 C 92.6397 51.9131 92.7689 51.7556 92.898 51.5993 C 93.0272 51.4429 93.1564 51.2876 93.2855 51.1335 C 93.4147 50.9794 93.5439 50.8264 93.6731 50.6747 C 93.8022 50.5229 93.9314 50.3725 94.0606 50.2233 C 94.1898 50.0741 94.3189 49.9263 94.4481 49.7798 C 94.5773 49.6334 94.7065 49.4884 94.8356 49.3448 C 94.9648 49.2012 95.094 49.0591 95.2231 48.9185 C 95.3523 48.778 95.4815 48.639 95.6107 48.5016 C 95.7398 48.3642 95.869 48.2284 95.9982 48.0943 C 96.1274 47.9603 96.2565 47.8279 96.3857 47.6973 C 96.5149 47.5667 96.644 47.4378 96.7732 47.3108 C 96.9024 47.1838 97.0316 47.0586 97.1607 46.9354 C 97.2899 46.8121 97.4191 46.6908 97.5483 46.5714 C 97.6774 46.452 97.8066 46.3346 97.9358 46.2193 C 98.0649 46.1039 98.1941 45.9906 98.3233 45.8794 C 98.4525 45.7682 98.5816 45.6591 98.7108 45.5521 C 98.84 45.4452 98.9692 45.3404 99.0983 45.2379 C 99.2275 45.1353 99.3567 45.035 99.4859 44.937 C 99.615 44.8389 99.7442 44.7432 99.8734 44.6498 C 100.003 44.5564 100.132 44.4653 100.261 44.3766 C 100.39 44.2879 100.519 44.2016 100.648 44.1178 C 100.778 44.034 100.907 43.9526 101.036 43.8737 C 101.165 43.7947 101.294 43.7183 101.423 43.6445 C 101.553 43.5706 101.682 43.4992 101.811 43.4305 C 101.94 43.3617 102.069 43.2955 102.198 43.2319 C 102.328 43.1684 102.457 43.1074 102.586 43.0491 C 102.715 42.9908 102.844 42.9352 102.974 42.8822 C 103.103 42.8292 103.232 42.779 103.361 42.7314 C 103.49 42.6838 103.619 42.639 103.749 42.5969 C 103.878 42.5548 104.007 42.5154 104.136 42.4788 C 104.265 42.4422 104.394 42.4084 104.524 42.3774 C 104.653 42.3464 104.782 42.3181 104.911 42.2927 C 105.04 42.2672 105.169 42.2446 105.299 42.2248 C 105.428 42.2049 105.557 42.1879 105.686 42.1738 C 105.815 42.1596 105.944 42.1482 106.074 42.1397 C 106.203 42.1312 106.332 42.1255 106.461 42.1227 C 106.59 42.1199 106.72 42.1199 106.849 42.1227 C 106.978 42.1255 107.107 42.1312 107.236 42.1397 C 107.365 42.1482 107.495 42.1596 107.624 42.1738 C 107.753 42.1879 107.882 42.2049 108.011 42.2248 C 108.14 42.2446 108.27 42.2672 108.399 42.2927 C 108.528 42.3181 108.657 42.3464 108.786 42.3774 C 108.915 42.4084 109.045 42.4423 109.174 42.4788 C 109.303 42.5154 109.432 42.5548 109.561 42.5969 C 109.691 42.639 109.82 42.6838 109.949 42.7314 C 110.078 42.7789 110.207 42.8292 110.336 42.8822 C 110.466 42.9351 110.595 42.9908 110.724 43.0491 C 110.853 43.1074 110.982 43.1684 111.111 43.2319 C 111.241 43.2955 111.37 43.3617 111.499 43.4305 C 111.628 43.4992 111.757 43.5706 111.886 43.6445 C 112.016 43.7183 112.145 43.7948 112.274 43.8737 C 112.403 43.9526 112.532 44.034 112.661 44.1178 C 112.791 44.2016 112.92 44.2879 113.049 44.3766 C 113.178 44.4653 113.307 44.5564 113.437 44.6498 C 113.566 44.7432 113.695 44.8389 113.824 44.937 C 113.953 45.035 114.082 45.1353 114.212 45.2379 C 114.341 45.3404 114.47 45.4452 114.599 45.5521 C 114.728 45.6591 114.857 45.7682 114.987 45.8794 C 115.116 45.9906 115.245 46.1039 115.374 46.2193 C 115.503 46.3346 115.632 46.452 115.762 46.5714 C 115.891 46.6908 116.02 46.8121 116.149 46.9354 C 116.278 47.0586 116.408 47.1838 116.537 47.3108 C 116.666 47.4378 116.795 47.5667 116.924 47.6973 C 117.053 47.8279 117.183 47.9603 117.312 48.0943 C 117.441 48.2284 117.57 48.3642 117.699 48.5016 C 117.828 48.6389 117.958 48.778 118.087 48.9185 C 118.216 49.0591 118.345 49.2012 118.474 49.3448 C 118.603 49.4883 118.733 49.6334 118.862 49.7798 C 118.991 49.9263 119.12 50.0741 119.249 50.2233 C 119.378 50.3725 119.508 50.5229 119.637 50.6747 C 119.766 50.8264 119.895 50.9794 120.024 51.1335 C 120.154 51.2876 120.283 51.4429 120.412 51.5993 C 120.541 51.7556 120.67 51.9131 120.799 52.0716 C 120.929 52.23 121.058 52.3895 121.187 52.5499 C 121.316 52.7103 121.445 52.8716 121.574 53.0338 C 121.704 53.196 121.833 53.359 121.962 53.5228 C 122.091 53.6866 122.22 53.8512 122.349 54.0164 C 122.479 54.1817 122.608 54.3476 122.737 54.5142 C 122.866 54.6808 122.995 54.848 123.124 55.0157 C 123.254 55.1834 123.383 55.3516 123.512 55.5204 C 123.641 55.6891 123.77 55.8583 123.9 56.0278 C 124.029 56.1974 124.158 56.3674 124.287 56.5376 C 124.416 56.7079 124.545 56.8785 124.675 57.0493 C 124.804 57.2201 124.933 57.3911 125.062 57.5623 C 125.191 57.7336 125.32 57.9049 125.45 58.0764 C 125.579 58.2479 125.708 58.4194 125.837 58.591 C 125.966 58.7626 126.095 58.9342 126.225 59.1058 C 126.354 59.2774 126.483 59.4489 126.612 59.6203 C 126.741 59.7917 126.871 59.963 127 60.1341 C 127.129 60.3052 127.258 60.4762 127.387 60.6468 C 127.516 60.8175 127.646 60.988 127.775 61.1581 C 127.904 61.3283 128.033 61.4981 128.162 61.6676 C 128.291 61.837 128.421 62.0061 128.55 62.1748 C 128.679 62.3435 128.808 62.5117 128.937 62.6795 C 129.066 62.8473 129.196 63.0146 129.325 63.1813 C 129.454 63.348 129.583 63.5142 129.712 63.6799 C 129.841 63.8455 129.971 64.0105 130.1 64.1749 C 130.229 64.3392 130.358 64.503 130.487 64.666 C 130.617 64.829 130.746 64.9914 130.875 65.153 C 131.004 65.3146 131.133 65.4754 131.262 65.6355 C 131.392 65.7956 131.521 65.9549 131.65 66.1133 C 131.779 66.2718 131.908 66.4294 132.037 66.5862 C 132.167 66.743 132.296 66.8988 132.425 67.0538 C 132.554 67.2088 132.683 67.3629 132.812 67.516 C 132.942 67.6691 133.071 67.8213 133.2 67.9725 C 133.329 68.1237 133.458 68.2739 133.588 68.4231 C 133.717 68.5723 133.846 68.7205 133.975 68.8676 C 134.104 69.0147 134.233 69.1608 134.363 69.3058 C 134.492 69.4509 134.621 69.5948 134.75 69.7376 C 134.879 69.8805 135.008 70.0222 135.138 70.1629 C 135.267 70.3035 135.396 70.443 135.525 70.5813 C 135.654 70.7197 135.783 70.8569 135.913 70.9929 C 136.042 71.1289 136.171 71.2638 136.3 71.3975 C 136.429 71.5312 136.558 71.6637 136.688 71.795 C 136.817 71.9262 136.946 72.0563 137.075 72.1852 C 137.204 72.3141 137.334 72.4417 137.463 72.5682 C 137.592 72.6946 137.721 72.8198 137.85 72.9438 C 137.979 73.0677 138.109 73.1905 138.238 73.3119 C 138.367 73.4334 138.496 73.5536 138.625 73.6726 C 138.754 73.7916 138.884 73.9093 139.013 74.0258 C 139.142 74.1422 139.271 74.2574 139.4 74.3713 C 139.529 74.4853 139.659 74.5979 139.788 74.7093 C 139.917 74.8207 140.046 74.9309 140.175 75.0397 C 140.304 75.1486 140.434 75.2562 140.563 75.3625 C 140.692 75.4689 140.821 75.5739 140.95 75.6778 C 141.08 75.7816 141.209 75.8841 141.338 75.9854 C 141.467 76.0867 141.596 76.1867 141.725 76.2855 C 141.855 76.3842 141.984 76.4817 142.113 76.578 C 142.242 76.6743 142.371 76.7693 142.5 76.8631 C 142.63 76.9569 142.759 77.0494 142.888 77.1407 C 143.017 77.232 143.146 77.3221 143.275 77.411 C 143.405 77.4998 143.534 77.5874 143.663 77.6739 C 143.792 77.7603 143.921 77.8455 144.051 77.9295 C 144.18 78.0136 144.309 78.0964 144.438 78.178 C 144.567 78.2597 144.696 78.3401 144.826 78.4194 C 144.955 78.4987 145.084 78.5768 145.213 78.6538 C 145.342 78.7307 145.471 78.8065 145.601 78.8812 C 145.73 78.9559 145.859 79.0294 145.988 79.1018 C 146.117 79.1742 146.246 79.2455 146.376 79.3157 C 146.505 79.3858 146.634 79.4549 146.763 79.5229 C 146.892 79.5909 147.021 79.6578 147.151 79.7236 C 147.28 79.7894 147.409 79.8542 147.538 79.9179 C 147.667 79.9816 147.797 80.0442 147.926 80.1058 C 148.055 80.1675 148.184 80.228 148.313 80.2876 C 148.442 80.3472 148.572 80.4057 148.701 80.4633 C 148.83 80.5209 148.959 80.5775 149.088 80.6331 C 149.217 80.6887 149.347 80.7433 149.476 80.797 C 149.605 80.8507 149.734 80.9034 149.863 80.9552 C 149.992 81.007 150.122 81.0579 150.251 81.1078 C 150.38 81.1578 150.509 81.2068 150.638 81.255 C 150.768 81.3032 150.897 81.3504 151.026 81.3968 C 151.155 81.4432 151.284 81.4888 151.413 81.5335 C 151.543 81.5782 151.672 81.622 151.801 81.665 C 151.93 81.7081 152.059 81.7502 152.188 81.7916 C 152.318 81.833 152.447 81.8736 152.576 81.9134 C 152.705 81.9533 152.834 81.9923 152.963 82.0305 C 153.093 82.0688 153.222 82.1063 153.351 82.1431 C 153.48 82.1799 153.609 82.2159 153.738 82.2512 C 153.868 82.2865 153.997 82.3211 154.126 82.355 C 154.255 82.3889 154.384 82.4221 154.514 82.4546 C 154.643 82.4871 154.772 82.5189 154.901 82.5501 C 155.03 82.5813 155.159 82.6118 155.289 82.6417 C 155.418 82.6716 155.547 82.7009 155.676 82.7295 C 155.805 82.7582 155.934 82.7862 156.064 82.8136 C 156.193 82.841 156.322 82.8679 156.451 82.8941 C 156.58 82.9204 156.709 82.9461 156.839 82.9712 C 156.968 82.9963 157.097 83.0209 157.226 83.0449 C 157.355 83.0689 157.484 83.0924 157.614 83.1154 C 157.743 83.1383 157.872 83.1608 158.001 83.1827 C 158.13 83.2046 158.26 83.2261 158.389 83.247 C 158.518 83.268 158.647 83.2884 158.776 83.3084 C 158.905 83.3284 159.035 83.348 159.164 83.3671 C 159.293 83.3861 159.422 83.4048 159.551 83.423 C 159.68 83.4412 159.81 83.4589 159.939 83.4763 C 160.068 83.4936 160.197 83.5106 160.326 83.5271 C 160.455 83.5436 160.585 83.5598 160.714 83.5755 C 160.843 83.5912 160.972 83.6066 161.101 83.6216 C 161.231 83.6366 161.36 83.6512 161.489 83.6654 C 161.618 83.6797 161.747 83.6936 161.876 83.7072 C 162.006 83.7207 162.135 83.734 162.264 83.7469 C 162.393 83.7597 162.522 83.7723 162.651 83.7846 C 162.781 83.7968 162.91 83.8088 163.039 83.8204 C 163.168 83.832 163.297 83.8434 163.426 83.8544 C 163.556 83.8655 163.685 83.8762 163.814 83.8867 C 163.943 83.8972 164.072 83.9074 164.201 83.9173 C 164.331 83.9273 164.46 83.937 164.589 83.9464"
       title="t (1/sqrt(2*pi))*exp(-t*t/2)"
       id="path6656" />
    <path
       style="fill:#ffffff;fill-opacity:0;stroke:#ff0000;stroke-width:0.2;stroke-dasharray:none;stroke-opacity:1"
       d="M 10.0982 84.4161 C 10.3135 84.4161 10.5288 84.4161 10.744 84.4161 C 10.9593 84.4161 11.1746 84.4161 11.3899 84.416 C 11.6052 84.416 11.8205 84.416 12.0358 84.416 C 12.2511 84.416 12.4663 84.416 12.6816 84.416 C 12.8969 84.4159 13.1122 84.4159 13.3275 84.4159 C 13.5428 84.4159 13.7581 84.4159 13.9734 84.4158 C 14.1887 84.4158 14.4039 84.4158 14.6192 84.4158 C 14.8345 84.4157 15.0498 84.4157 15.2651 84.4157 C 15.4804 84.4156 15.6957 84.4156 15.911 84.4156 C 16.1262 84.4155 16.3415 84.4155 16.5568 84.4155 C 16.7721 84.4154 16.9874 84.4154 17.2027 84.4153 C 17.418 84.4153 17.6333 84.4152 17.8486 84.4152 C 18.0638 84.4151 18.2791 84.4151 18.4944 84.415 C 18.7097 84.4149 18.925 84.4149 19.1403 84.4148 C 19.3556 84.4147 19.5709 84.4146 19.7861 84.4146 C 20.0014 84.4145 20.2167 84.4144 20.432 84.4143 C 20.6473 84.4142 20.8626 84.4141 21.0779 84.414 C 21.2932 84.4138 21.5085 84.4137 21.7237 84.4136 C 21.939 84.4135 22.1543 84.4133 22.3696 84.4132 C 22.5849 84.413 22.8002 84.4129 23.0155 84.4127 C 23.2308 84.4125 23.446 84.4123 23.6613 84.4121 C 23.8766 84.4119 24.0919 84.4117 24.3072 84.4115 C 24.5225 84.4113 24.7378 84.411 24.9531 84.4108 C 25.1684 84.4105 25.3836 84.4102 25.5989 84.4099 C 25.8142 84.4096 26.0295 84.4093 26.2448 84.409 C 26.4601 84.4087 26.6754 84.4083 26.8907 84.4079 C 27.1059 84.4075 27.3212 84.4071 27.5365 84.4067 C 27.7518 84.4062 27.9671 84.4058 28.1824 84.4053 C 28.3977 84.4048 28.613 84.4043 28.8283 84.4037 C 29.0435 84.4031 29.2588 84.4025 29.4741 84.4019 C 29.6894 84.4012 29.9047 84.4006 30.12 84.3998 C 30.3353 84.3991 30.5506 84.3983 30.7658 84.3975 C 30.9811 84.3967 31.1964 84.3958 31.4117 84.3949 C 31.627 84.394 31.8423 84.393 32.0576 84.3919 C 32.2729 84.3909 32.4882 84.3898 32.7034 84.3886 C 32.9187 84.3874 33.134 84.3862 33.3493 84.3848 C 33.5646 84.3835 33.7799 84.3821 33.9952 84.3806 C 34.2105 84.3791 34.4257 84.3775 34.641 84.3758 C 34.8563 84.3742 35.0716 84.3724 35.2869 84.3705 C 35.5022 84.3686 35.7175 84.3666 35.9328 84.3645 C 36.1481 84.3624 36.3633 84.3602 36.5786 84.3578 C 36.7939 84.3554 37.0092 84.3529 37.2245 84.3503 C 37.4398 84.3476 37.6551 84.3448 37.8704 84.3419 C 38.0856 84.3389 38.3009 84.3358 38.5162 84.3325 C 38.7315 84.3292 38.9468 84.3258 39.1621 84.3221 C 39.3774 84.3184 39.5927 84.3146 39.808 84.3105 C 40.0232 84.3064 40.2385 84.3021 40.4538 84.2976 C 40.6691 84.293 40.8844 84.2883 41.0997 84.2832 C 41.315 84.2782 41.5303 84.2729 41.7455 84.2673 C 41.9608 84.2617 42.1761 84.2559 42.3914 84.2497 C 42.6067 84.2435 42.822 84.237 43.0373 84.2302 C 43.2526 84.2233 43.4679 84.2162 43.6831 84.2086 C 43.8984 84.2011 44.1137 84.1932 44.329 84.1848 C 44.5443 84.1765 44.7596 84.1678 44.9749 84.1586 C 45.1902 84.1494 45.4054 84.1398 45.6207 84.1297 C 45.836 84.1196 46.0513 84.109 46.2666 84.0979 C 46.4819 84.0868 46.6972 84.0752 46.9125 84.063 C 47.1278 84.0508 47.343 84.0381 47.5583 84.0247 C 47.7736 84.0114 47.9889 83.9974 48.2042 83.9828 C 48.4195 83.9682 48.6348 83.9529 48.8501 83.9369 C 49.0653 83.9209 49.2806 83.9042 49.4959 83.8867 C 49.7112 83.8692 49.9265 83.851 50.1418 83.8319 C 50.3571 83.8129 50.5724 83.793 50.7877 83.7722 C 51.0029 83.7514 51.2182 83.7298 51.4335 83.7072 C 51.6488 83.6846 51.8641 83.661 52.0794 83.6364 C 52.2947 83.6119 52.51 83.5863 52.7252 83.5596 C 52.9405 83.533 53.1558 83.5052 53.3711 83.4763 C 53.5864 83.4474 53.8017 83.4173 54.017 83.386 C 54.2323 83.3547 54.4476 83.3221 54.6628 83.2883 C 54.8781 83.2544 55.0934 83.2193 55.3087 83.1827 C 55.524 83.1461 55.7393 83.1082 55.9546 83.0687 C 56.1699 83.0293 56.3851 82.9884 56.6004 82.9459 C 56.8157 82.9034 57.031 82.8593 57.2463 82.8136 C 57.4616 82.7679 57.6769 82.7205 57.8922 82.6714 C 58.1075 82.6223 58.3227 82.5714 58.538 82.5187 C 58.7533 82.466 58.9686 82.4115 59.1839 82.355 C 59.3992 82.2985 59.6145 82.2401 59.8298 82.1796 C 60.045 82.1191 60.2603 82.0566 60.4756 81.992 C 60.6909 81.9274 60.9062 81.8606 61.1215 81.7916 C 61.3368 81.7227 61.5521 81.6514 61.7674 81.5779 C 61.9826 81.5043 62.1979 81.4284 62.4132 81.3501 C 62.6285 81.2718 62.8438 81.1911 63.0591 81.1078 C 63.2744 81.0246 63.4897 80.9388 63.7049 80.8504 C 63.9202 80.7619 64.1355 80.6709 64.3508 80.5771 C 64.5661 80.4834 64.7814 80.3869 64.9967 80.2876 C 65.212 80.1883 65.4273 80.0862 65.6425 79.9812 C 65.8578 79.8762 66.0731 79.7683 66.2884 79.6574 C 66.5037 79.5465 66.719 79.4326 66.9343 79.3157 C 67.1496 79.1987 67.3648 79.0787 67.5801 78.9555 C 67.7954 78.8323 68.0107 78.706 68.226 78.5764 C 68.4413 78.4469 68.6566 78.3141 68.8719 78.178 C 69.0872 78.042 69.3024 77.9026 69.5177 77.7599 C 69.733 77.6172 69.9483 77.4711 70.1636 77.3217 C 70.3789 77.1722 70.5942 77.0194 70.8095 76.8631 C 71.0247 76.7068 71.24 76.547 71.4553 76.3838 C 71.6706 76.2206 71.8859 76.0539 72.1012 75.8837 C 72.3165 75.7135 72.5318 75.5398 72.7471 75.3625 C 72.9623 75.1853 73.1776 75.0046 73.3929 74.8203 C 73.6082 74.6361 73.8235 74.4483 74.0388 74.257 C 74.2541 74.0657 74.4694 73.8709 74.6846 73.6726 C 74.8999 73.4743 75.1152 73.2725 75.3305 73.0673 C 75.5458 72.8621 75.7611 72.6534 75.9764 72.4413 C 76.1917 72.2293 76.407 72.0138 76.6222 71.795 C 76.8375 71.5761 77.0528 71.354 77.2681 71.1285 C 77.4834 70.9031 77.6987 70.6744 77.914 70.4426 C 78.1293 70.2107 78.3445 69.9757 78.5598 69.7376 C 78.7751 69.4996 78.9904 69.2584 79.2057 69.0144 C 79.421 68.7703 79.6363 68.5233 79.8516 68.2735 C 80.0669 68.0238 80.2821 67.7712 80.4974 67.516 C 80.7127 67.2608 80.928 67.003 81.1433 66.7427 C 81.3586 66.4824 81.5739 66.2196 81.7892 65.9546 C 82.0044 65.6896 82.2197 65.4223 82.435 65.153 C 82.6503 64.8836 82.8656 64.6122 83.0809 64.339 C 83.2962 64.0658 83.5115 63.7907 83.7268 63.514 C 83.942 63.2374 84.1573 62.9591 84.3726 62.6795 C 84.5879 62.3999 84.8032 62.1189 85.0185 61.8369 C 85.2338 61.5549 85.4491 61.2718 85.6643 60.9879 C 85.8796 60.704 86.0949 60.4193 86.3102 60.1341 C 86.5255 59.8489 86.7408 59.5632 86.9561 59.2773 C 87.1714 58.9915 87.3867 58.7054 87.6019 58.4195 C 87.8172 58.1335 88.0325 57.8477 88.2478 57.5623 C 88.4631 57.277 88.6784 56.9921 88.8937 56.708 C 89.109 56.4239 89.3242 56.1406 89.5395 55.8584 C 89.7548 55.5762 89.9701 55.2952 90.1854 55.0157 C 90.4007 54.7361 90.616 54.4581 90.8313 54.1819 C 91.0466 53.9057 91.2618 53.6314 91.4771 53.3593 C 91.6924 53.0871 91.9077 52.8172 92.123 52.5499 C 92.3383 52.2826 92.5536 52.0178 92.7689 51.756 C 92.9841 51.4942 93.1994 51.2353 93.4147 50.9797 C 93.63 50.7242 93.8453 50.4719 94.0606 50.2233 C 94.2759 49.9747 94.4912 49.7298 94.7065 49.4888 C 94.9217 49.2479 95.137 49.011 95.3523 48.7785 C 95.5676 48.5459 95.7829 48.3178 95.9982 48.0943 C 96.2135 47.8709 96.4288 47.6521 96.644 47.4384 C 96.8593 47.2247 97.0746 47.0161 97.2899 46.8128 C 97.5052 46.6095 97.7205 46.4115 97.9358 46.2193 C 98.1511 46.027 98.3664 45.8404 98.5816 45.6598 C 98.7969 45.4791 99.0122 45.3045 99.2275 45.1361 C 99.4428 44.9676 99.6581 44.8055 99.8734 44.6498 C 100.089 44.4941 100.304 44.3449 100.519 44.2025 C 100.735 44.06 100.95 43.9243 101.165 43.7956 C 101.38 43.6668 101.596 43.5451 101.811 43.4305 C 102.026 43.3158 102.242 43.2084 102.457 43.1083 C 102.672 43.0082 102.887 42.9154 103.103 42.8301 C 103.318 42.7448 103.533 42.6671 103.749 42.5969 C 103.964 42.5267 104.179 42.4642 104.394 42.4094 C 104.61 42.3545 104.825 42.3075 105.04 42.2682 C 105.256 42.2289 105.471 42.1974 105.686 42.1738 C 105.901 42.1501 106.117 42.1344 106.332 42.1265 C 106.547 42.1186 106.763 42.1186 106.978 42.1265 C 107.193 42.1344 107.408 42.1501 107.624 42.1738 C 107.839 42.1974 108.054 42.2289 108.27 42.2682 C 108.485 42.3074 108.7 42.3545 108.915 42.4094 C 109.131 42.4642 109.346 42.5267 109.561 42.5969 C 109.777 42.667 109.992 42.7448 110.207 42.8301 C 110.422 42.9154 110.638 43.0082 110.853 43.1083 C 111.068 43.2084 111.284 43.3159 111.499 43.4305 C 111.714 43.5451 111.93 43.6669 112.145 43.7956 C 112.36 43.9243 112.575 44.06 112.791 44.2025 C 113.006 44.3449 113.221 44.4941 113.437 44.6498 C 113.652 44.8054 113.867 44.9676 114.082 45.1361 C 114.298 45.3045 114.513 45.4792 114.728 45.6598 C 114.944 45.8404 115.159 46.027 115.374 46.2193 C 115.589 46.4115 115.805 46.6095 116.02 46.8128 C 116.235 47.0161 116.451 47.2247 116.666 47.4384 C 116.881 47.6521 117.096 47.8709 117.312 48.0943 C 117.527 48.3178 117.742 48.546 117.958 48.7785 C 118.173 49.011 118.388 49.2479 118.603 49.4888 C 118.819 49.7298 119.034 49.9747 119.249 50.2233 C 119.465 50.4719 119.68 50.7242 119.895 50.9797 C 120.11 51.2353 120.326 51.4942 120.541 51.756 C 120.756 52.0178 120.972 52.2826 121.187 52.5499 C 121.402 52.8172 121.617 53.0872 121.833 53.3593 C 122.048 53.6314 122.263 53.9057 122.479 54.1819 C 122.694 54.4581 122.909 54.7361 123.124 55.0157 C 123.34 55.2952 123.555 55.5762 123.77 55.8584 C 123.986 56.1406 124.201 56.4239 124.416 56.708 C 124.632 56.9921 124.847 57.277 125.062 57.5623 C 125.277 57.8477 125.493 58.1335 125.708 58.4195 C 125.923 58.7054 126.139 58.9915 126.354 59.2773 C 126.569 59.5632 126.784 59.8489 127 60.1341 C 127.215 60.4193 127.43 60.704 127.646 60.9879 C 127.861 61.2718 128.076 61.5549 128.291 61.8369 C 128.507 62.1189 128.722 62.3999 128.937 62.6795 C 129.153 62.9591 129.368 63.2374 129.583 63.514 C 129.798 63.7907 130.014 64.0658 130.229 64.339 C 130.444 64.6122 130.66 64.8836 130.875 65.153 C 131.09 65.4223 131.305 65.6896 131.521 65.9546 C 131.736 66.2196 131.951 66.4824 132.167 66.7427 C 132.382 67.003 132.597 67.2608 132.812 67.516 C 133.028 67.7712 133.243 68.0238 133.458 68.2735 C 133.674 68.5233 133.889 68.7703 134.104 69.0144 C 134.319 69.2584 134.535 69.4996 134.75 69.7376 C 134.965 69.9757 135.181 70.2107 135.396 70.4426 C 135.611 70.6744 135.827 70.9031 136.042 71.1285 C 136.257 71.354 136.472 71.5761 136.688 71.795 C 136.903 72.0138 137.118 72.2293 137.334 72.4413 C 137.549 72.6534 137.764 72.8621 137.979 73.0673 C 138.195 73.2726 138.41 73.4743 138.625 73.6726 C 138.841 73.8709 139.056 74.0657 139.271 74.257 C 139.486 74.4483 139.702 74.6361 139.917 74.8203 C 140.132 75.0046 140.348 75.1853 140.563 75.3625 C 140.778 75.5398 140.993 75.7135 141.209 75.8837 C 141.424 76.0539 141.639 76.2206 141.855 76.3838 C 142.07 76.547 142.285 76.7068 142.5 76.8631 C 142.716 77.0194 142.931 77.1722 143.146 77.3217 C 143.362 77.4711 143.577 77.6172 143.792 77.7599 C 144.007 77.9026 144.223 78.042 144.438 78.178 C 144.653 78.3141 144.869 78.4469 145.084 78.5764 C 145.299 78.706 145.514 78.8323 145.73 78.9555 C 145.945 79.0787 146.16 79.1987 146.376 79.3157 C 146.591 79.4326 146.806 79.5465 147.021 79.6574 C 147.237 79.7683 147.452 79.8762 147.667 79.9812 C 147.883 80.0862 148.098 80.1883 148.313 80.2876 C 148.529 80.3869 148.744 80.4834 148.959 80.5771 C 149.174 80.6709 149.39 80.7619 149.605 80.8504 C 149.82 80.9388 150.036 81.0246 150.251 81.1078 C 150.466 81.1911 150.681 81.2718 150.897 81.3501 C 151.112 81.4285 151.327 81.5043 151.543 81.5779 C 151.758 81.6514 151.973 81.7227 152.188 81.7916 C 152.404 81.8606 152.619 81.9274 152.834 81.992 C 153.05 82.0567 153.265 82.1191 153.48 82.1796 C 153.695 82.2401 153.911 82.2985 154.126 82.355 C 154.341 82.4115 154.557 82.466 154.772 82.5187 C 154.987 82.5714 155.202 82.6223 155.418 82.6714 C 155.633 82.7205 155.848 82.7679 156.064 82.8136 C 156.279 82.8593 156.494 82.9034 156.709 82.9459 C 156.925 82.9884 157.14 83.0293 157.355 83.0687 C 157.571 83.1082 157.786 83.1461 158.001 83.1827 C 158.216 83.2193 158.432 83.2544 158.647 83.2883 C 158.862 83.3221 159.078 83.3547 159.293 83.386 C 159.508 83.4173 159.723 83.4474 159.939 83.4763 C 160.154 83.5052 160.369 83.533 160.585 83.5596 C 160.8 83.5863 161.015 83.6119 161.231 83.6364 C 161.446 83.661 161.661 83.6846 161.876 83.7072 C 162.092 83.7298 162.307 83.7514 162.522 83.7722 C 162.738 83.793 162.953 83.8129 163.168 83.8319 C 163.383 83.851 163.599 83.8692 163.814 83.8867 C 164.029 83.9042 164.245 83.9209 164.46 83.9369 C 164.675 83.9529 164.89 83.9682 165.106 83.9828 C 165.321 83.9974 165.536 84.0114 165.752 84.0247 C 165.967 84.0381 166.182 84.0508 166.397 84.063 C 166.613 84.0752 166.828 84.0868 167.043 84.0979 C 167.259 84.109 167.474 84.1196 167.689 84.1297 C 167.904 84.1398 168.12 84.1494 168.335 84.1586 C 168.55 84.1678 168.766 84.1765 168.981 84.1848 C 169.196 84.1932 169.411 84.2011 169.627 84.2086 C 169.842 84.2162 170.057 84.2233 170.273 84.2302 C 170.488 84.237 170.703 84.2435 170.918 84.2497 C 171.134 84.2559 171.349 84.2617 171.564 84.2673 C 171.78 84.2729 171.995 84.2782 172.21 84.2832 C 172.426 84.2883 172.641 84.293 172.856 84.2976 C 173.071 84.3021 173.287 84.3064 173.502 84.3105 C 173.717 84.3146 173.933 84.3184 174.148 84.3221 C 174.363 84.3258 174.578 84.3292 174.794 84.3325 C 175.009 84.3358 175.224 84.3389 175.44 84.3419 C 175.655 84.3448 175.87 84.3476 176.085 84.3503 C 176.301 84.3529 176.516 84.3554 176.731 84.3578 C 176.947 84.3602 177.162 84.3624 177.377 84.3645 C 177.592 84.3666 177.808 84.3686 178.023 84.3705 C 178.238 84.3724 178.454 84.3742 178.669 84.3758 C 178.884 84.3775 179.099 84.3791 179.315 84.3806 C 179.53 84.3821 179.745 84.3835 179.961 84.3848 C 180.176 84.3862 180.391 84.3874 180.606 84.3886 C 180.822 84.3898 181.037 84.3909 181.252 84.3919 C 181.468 84.393 181.683 84.394 181.898 84.3949 C 182.113 84.3958 182.329 84.3967 182.544 84.3975 C 182.759 84.3983 182.975 84.3991 183.19 84.3998 C 183.405 84.4006 183.62 84.4012 183.836 84.4019 C 184.051 84.4025 184.266 84.4031 184.482 84.4037 C 184.697 84.4043 184.912 84.4048 185.128 84.4053 C 185.343 84.4058 185.558 84.4062 185.773 84.4067 C 185.989 84.4071 186.204 84.4075 186.419 84.4079 C 186.635 84.4083 186.85 84.4087 187.065 84.409 C 187.28 84.4093 187.496 84.4096 187.711 84.4099 C 187.926 84.4102 188.142 84.4105 188.357 84.4108 C 188.572 84.411 188.787 84.4113 189.003 84.4115 C 189.218 84.4117 189.433 84.4119 189.649 84.4121 C 189.864 84.4123 190.079 84.4125 190.294 84.4127 C 190.51 84.4129 190.725 84.413 190.94 84.4132 C 191.156 84.4133 191.371 84.4135 191.586 84.4136 C 191.801 84.4137 192.017 84.4138 192.232 84.414 C 192.447 84.4141 192.663 84.4142 192.878 84.4143 C 193.093 84.4144 193.308 84.4145 193.524 84.4146 C 193.739 84.4146 193.954 84.4147 194.17 84.4148 C 194.385 84.4149 194.6 84.4149 194.815 84.415 C 195.031 84.4151 195.246 84.4151 195.461 84.4152 C 195.677 84.4152 195.892 84.4153 196.107 84.4153 C 196.322 84.4154 196.538 84.4154 196.753 84.4155 C 196.968 84.4155 197.184 84.4155 197.399 84.4156 C 197.614 84.4156 197.83 84.4156 198.045 84.4157 C 198.26 84.4157 198.475 84.4157 198.691 84.4158 C 198.906 84.4158 199.121 84.4158 199.337 84.4158 C 199.552 84.4159 199.767 84.4159 199.982 84.4159 C 200.198 84.4159 200.413 84.4159 200.628 84.416 C 200.844 84.416 201.059 84.416 201.274 84.416 C 201.489 84.416 201.705 84.416 201.92 84.416 C 202.135 84.4161 202.351 84.4161 202.566 84.4161 C 202.781 84.4161 202.996 84.4161 203.212 84.4161"
       title="t (1/sqrt(2*pi))*exp(-t*t/2)"
       id="path6671" />
    <path
       style="fill:#ffffff;fill-opacity:0;stroke:#7000aa;stroke-width:0.2;stroke-dasharray:none;stroke-opacity:1"
       d="m 8.5106999,84.4163 c 0.2153,0 0.4306,0 0.6457997,0 0.2153,0 0.4305997,0 0.6458997,0 0.2152997,0 0.4305997,0 0.6458997,0 0.2153,0 0.4305,0 0.6458,0 0.2153,0 0.4306,0 0.6459,0 0.2153,0 0.4306,0 0.6459,0 0.2153,0 0.4305,0 0.6458,0 0.2153,0 0.4306,0 0.6459,0 0.2153,0 0.4306,0 0.6459,0 0.2152,0 0.4305,0 0.6458,0 0.2153,0 0.4306,0 0.6459,0 0.2153,0 0.4306,0 0.6459,0 0.2152,0 0.4305,0 0.6458,0 0.2153,0 0.4306,0 0.6459,0 0.2153,0 0.4306,0 0.6458,0 0.2153,0 0.4306,0 0.6459,0 0.2153,0 0.4306,0 0.6459,0 0.2153,0 0.4306,0 0.6458,0 0.2153,0 0.4306,0 0.6459,0 0.2153,0 0.4306,0 0.6459,0 0.2153,0 0.4305,0 0.6458,0 0.2153,0 0.4306,0 0.6459,0 0.2153,0 0.4306,0 0.6459,0 0.2153,0 0.4305,0 0.6458,0 0.2153,0 0.4306,0 0.6459,0 0.2153,0 0.4306,0 0.6459,0 0.2152,0 0.4305,0 0.6458,0 0.2153,0 0.4306,0 0.6459,0 0.2153,0 0.4306,0 0.6459,0 0.2152,0 0.4305,0 0.6458,0 0.2153,0 0.4306,0 0.6459,0 0.2153,0 0.4306,-1e-4 0.6458,-1e-4 0.2153,0 0.4306,0 0.6459,0 0.2153,0 0.4306,0 0.6459,0 0.2153,0 0.4306,0 0.6458,0 0.2153,0 0.4306,0 0.6459,0 0.2153,0 0.4306,0 0.6459,0 0.2153,0 0.4305,0 0.6458,0 0.2153,0 0.4306,0 0.6459,0 0.2153,0 0.4306,0 0.6459,0 0.2153,0 0.4305,0 0.6458,0 0.2153,0 0.4306,0 0.6459,0 0.2153,-1e-4 0.4306,-1e-4 0.6459,-1e-4 0.2152,0 0.4305,0 0.6458,0 0.2153,0 0.4306,0 0.6459,0 0.2153,-1e-4 0.4306,-1e-4 0.6459,-1e-4 0.2152,0 0.4305,0 0.6458,0 0.2153,-1e-4 0.4306,-1e-4 0.6459,-1e-4 0.2153,0 0.4306,-10e-5 0.6458,-10e-5 0.2153,0 0.4306,-1e-4 0.6459,-1e-4 0.2153,0 0.4306,-1e-4 0.6459,-1e-4 0.2153,-1e-4 0.4306,-1e-4 0.6458,-2e-4 0.2153,0 0.4306,-1e-4 0.6459,-2e-4 0.2153,0 0.4306,-1e-4 0.6459,-2e-4 0.2153,-1e-4 0.4305,-1e-4 0.6458,-2e-4 0.2153,-1e-4 0.4306,-2e-4 0.6459,-4e-4 0.2153,-1e-4 0.4306,-2e-4 0.6459,-3e-4 0.2153,-2e-4 0.4305,-3e-4 0.6458,-5e-4 0.2153,-2e-4 0.4306,-3e-4 0.6459,-5e-4 0.2153,-2e-4 0.4306,-4e-4 0.6459,-7e-4 0.2152,-2e-4 0.4305,-5e-4 0.6458,-7e-4 0.2153,-3e-4 0.4306,-6e-4 0.6459,-9e-4 0.2153,-4e-4 0.4306,-7e-4 0.6459,-0.0011 0.2152,-4e-4 0.4305,-8e-4 0.6458,-0.0013 0.2153,-4e-4 0.4306,-9e-4 0.6459,-0.0015 0.2153,-5e-4 0.4306,-0.0011 0.6458,-0.0017 0.2153,-7e-4 0.4306,-0.0013 0.6459,-0.0021 0.2153,-7e-4 0.4306,-0.0015 0.6459,-0.0024 0.2153,-9e-4 0.4306,-0.0018 0.6458,-0.0029 0.2153,-0.001 0.4306,-0.0021 0.6459,-0.0033 0.2153,-0.0012 0.4306,-0.0025 0.6459,-0.0039 0.2153,-0.0014 0.4305,-0.0029 0.6458,-0.0045 0.2153,-0.0016 0.4306,-0.0034 0.6459,-0.0053 0.2153,-0.0018 0.4306,-0.0039 0.6459,-0.0061 0.2153,-0.0022 0.4305,-0.0045 0.6458,-0.007 0.2153,-0.0026 0.4306,-0.0053 0.6459,-0.0082 0.2153,-0.0029 0.4306,-0.0061 0.6459,-0.0094 0.2152,-0.0034 0.4305,-0.007 0.6458,-0.0109 0.2153,-0.0039 0.4306,-0.008 0.6459,-0.0125 0.2153,-0.0045 0.4306,-0.0092 0.6459,-0.0143 0.2152,-0.0051 0.4305,-0.0106 0.6458,-0.0164 0.2153,-0.0059 0.4306,-0.0121 0.6459,-0.0188 0.2153,-0.0067 0.4306,-0.0138 0.6458,-0.0214 0.2153,-0.0076 0.4306,-0.0158 0.6459,-0.0244 0.2153,-0.0087 0.4306,-0.0179 0.6459,-0.0277 0.2153,-0.0099 0.4306,-0.0203 0.6458,-0.0315 0.2153,-0.0112 0.4306,-0.023 0.6459,-0.0356 0.2153,-0.0126 0.4306,-0.026 0.6459,-0.0403 0.2153,-0.0142 0.4305,-0.0293 0.6458,-0.0454 0.2153,-0.0161 0.4306,-0.0331 0.6459,-0.0511 0.2153,-0.0181 0.4306,-0.0372 0.6459,-0.0575 0.2153,-0.0203 0.4305,-0.0417 0.6458,-0.0645 0.2153,-0.0227 0.4306,-0.0467 0.6459,-0.0721 0.2153,-0.0254 0.4306,-0.0522 0.6459,-0.0806 0.2152,-0.0284 0.4305,-0.0583 0.6458,-0.0899 0.2153,-0.0316 0.4306,-0.0649 0.6459,-0.1 0.2153,-0.0351 0.4306,-0.0721 0.6459,-0.1111 0.2152,-0.039 0.4305,-0.08 0.6458,-0.1232 0.2153,-0.0432 0.4306,-0.0885 0.6459,-0.1362 0.2153,-0.0478 0.4306,-0.0979 0.6458,-0.1505 0.2153,-0.0526 0.4306,-0.1078 0.6459,-0.1658 0.2153,-0.0579 0.4306,-0.1187 0.6459,-0.1823 0.2153,-0.0637 0.4306,-0.1304 0.6458,-0.2002 0.2153,-0.0698 0.4306,-0.1428 0.6459,-0.2192 0.2153,-0.0764 0.4306,-0.1562 0.6459,-0.2397 0.2153,-0.0834 0.4305,-0.1705 0.6458,-0.2614 0.2153,-0.091 0.4306,-0.1858 0.6459,-0.2847 0.2153,-0.0989 0.4306,-0.2019 0.6459,-0.3093 0.2153,-0.1073 0.4305,-0.219 0.6458,-0.3353 0.2153,-0.1163 0.4306,-0.2372 0.6459,-0.3629 0.2153,-0.1257 0.4306,-0.2563 0.6459,-0.3919 0.2152,-0.1356 0.4305,-0.2762 0.6458,-0.4222 0.2153,-0.146 0.4306,-0.2972 0.6459,-0.454 0.2153,-0.1568 0.4306,-0.3191 0.6459,-0.4872 0.2152,-0.1681 0.4305,-0.3419 0.6458,-0.5216 0.2153,-0.1798 0.4306,-0.3655 0.6459,-0.5574 0.2153,-0.1918 0.4306,-0.3898 0.6458,-0.5941 0.2153,-0.2044 0.4306,-0.415 0.6459,-0.6321 0.2153,-0.2171 0.4306,-0.4408 0.6459,-0.671 0.2153,-0.2302 0.4306,-0.467 0.6458,-0.7105 0.2153,-0.2436 0.4306,-0.4939 0.6459,-0.7509 0.2153,-0.2571 0.4306,-0.521 0.6459,-0.7917 0.2153,-0.2708 0.4305,-0.5484 0.6458,-0.8328 0.2153,-0.2845 0.4306,-0.5759 0.6459,-0.874 0.2153,-0.2982 0.4306,-0.6033 0.6459,-0.9152 0.2153,-0.3118 0.4305,-0.6305 0.6458,-0.9559 0.2153,-0.3253 0.4306,-0.6574 0.6459,-0.9961 0.2153,-0.3386 0.4306,-0.6838 0.6459,-1.0354 0.2152,-0.3516 0.4305,-0.7096 0.6458,-1.0737 0.2153,-0.3641 0.4306,-0.7344 0.6459,-1.1105 0.2153,-0.3761 0.4306,-0.7581 0.6459,-1.1456 0.2152,-0.3876 0.4305,-0.7807 0.6458,-1.1789 0.2153,-0.3982 0.4306,-0.8016 0.6459,-1.2098 0.2153,-0.4081 0.4306,-0.821 0.6458,-1.2381 0.2153,-0.4171 0.4306,-0.8385 0.6459,-1.2636 0.2153,-0.4251 0.4306,-0.8539 0.6459,-1.2859 0.2153,-0.432 0.4306,-0.8671 0.6458,-1.3048 0.2153,-0.4376 0.4306,-0.8778 0.6459,-1.3199 0.2153,-0.442 0.4306,-0.8859 0.6459,-1.331 0.2156,-0.4451 0.4306,-0.8913 0.6456,-1.338 0.215997,-0.4466 0.430997,-0.8937 0.645994,-1.3404 0.215,-0.4467 0.430997,-0.893 0.645997,-1.3381 0.215,-0.4452 0.431,-0.8891 0.646,-1.3311 0.215,-0.4419 0.43,-0.8819 0.646,-1.3189 0.215,-0.4371 0.43,-0.8713 0.646,-1.3017 0.215,-0.4305 0.43,-0.8571 0.645,-1.2792 0.216,-0.4221 0.431,-0.8395 0.646,-1.2514 0.216,-0.4119 0.431,-0.8183 0.646,-1.2182 0.215,-0.4 0.431,-0.7936 0.646,-1.1798 0.215,-0.3863 0.431,-0.7653 0.646,-1.1362 0.215,-0.3708 0.43,-0.7335 0.646,-1.0872 0.215,-0.3537 0.43,-0.6984 0.646,-1.0333 0.215,-0.3349 0.43,-0.6599 0.645,-0.9744 0.216,-0.3145 0.431,-0.6184 0.646,-0.911 0.216,-0.2926 0.431,-0.5738 0.646,-0.843 0.215,-0.2693 0.431,-0.5264 0.646,-0.771 0.215,-0.2445 0.431,-0.4763 0.646,-0.695 0.215,-0.2186 0.431,-0.4239 0.646,-0.6155 0.215,-0.1916 0.43,-0.3693 0.646,-0.5329 0.215,-0.1636 0.43,-0.3129 0.646,-0.4476 0.215,-0.1347 0.43,-0.2548 0.645,-0.36 0.216,-0.1052 0.431,-0.1954 0.646,-0.2705 0.216,-0.075 0.431,-0.1349 0.646,-0.1795 0.215,-0.0446 0.431,-0.0738 0.646,-0.0877 0.215,-0.0139 0.431,-0.0123 0.646,0.0046 0.215,0.0169 0.43,0.0493 0.646,0.0969 0.215,0.0477 0.43,0.1106 0.646,0.1887 0.215,0.0781 0.43,0.1714 0.645,0.2795 0.216,0.1081 0.431,0.2312 0.646,0.3688 0.216,0.1377 0.431,0.2899 0.646,0.4563 0.215,0.1664 0.431,0.347 0.646,0.5413 0.215,0.1943 0.431,0.4024 0.646,0.6236 0.215,0.2213 0.43,0.4557 0.646,0.7028 0.215,0.247 0.43,0.5067 0.646,0.7783 0.215,0.2716 0.43,0.5552 0.645,0.85 0.216,0.2948 0.431,0.6009 0.646,0.9175 0.216,0.3166 0.431,0.6438 0.646,0.9806 0.216,0.3368 0.431,0.6834 0.646,1.0389 0.215,0.3555 0.431,0.7199 0.646,1.0923 0.215,0.3725 0.431,0.753 0.646,1.1408 0.215,0.3877 0.43,0.7826 0.646,1.1838 0.215,0.4013 0.43,0.8089 0.646,1.2219 0.215,0.4129 0.43,0.8314 0.645,1.2544 0.216,0.4229 0.431,0.8504 0.646,1.2816 0.216,0.4312 0.431,0.866 0.646,1.3037 0.215,0.4376 0.431,0.878 0.646,1.3203 0.215,0.4424 0.431,0.8867 0.646,1.332 0.215,0.4454 0.43,0.8919 0.646,1.3386 0.215,0.4468 0.43,0.8938 0.646,1.3404 0.215,0.4466 0.43,0.8926 0.645,1.3375 0.216,0.4448 0.431,0.8884 0.646,1.3301 0.216,0.4417 0.431,0.8814 0.646,1.3186 0.215,0.4371 0.431,0.8717 0.646,1.303 0.215,0.4314 0.431,0.8595 0.646,1.2838 0.215,0.4244 0.431,0.8449 0.646,1.2612 0.215,0.4163 0.43,0.8282 0.646,1.2354 0.215,0.4072 0.43,0.8096 0.646,1.2068 0.215,0.3972 0.43,0.7892 0.645,1.1756 0.216,0.3865 0.431,0.7673 0.646,1.1423 0.216,0.3749 0.431,0.744 0.646,1.1069 0.215,0.3629 0.431,0.7196 0.646,1.0699 0.215,0.3503 0.431,0.6942 0.646,1.0315 0.215,0.3374 0.43,0.6681 0.646,0.9921 0.215,0.3241 0.43,0.6414 0.646,0.9519 0.215,0.3105 0.43,0.6142 0.645,0.911 0.216,0.2968 0.431,0.5868 0.646,0.8699 0.216,0.2831 0.431,0.5593 0.646,0.8287 0.215,0.2694 0.431,0.5319 0.646,0.7876 0.215,0.2557 0.431,0.5046 0.646,0.7468 0.215,0.2422 0.43,0.4777 0.646,0.7066 0.215,0.2289 0.43,0.4512 0.646,0.667 0.215,0.2158 0.43,0.4252 0.645,0.6283 0.216,0.203 0.431,0.3998 0.646,0.5904 0.216,0.1906 0.431,0.3751 0.646,0.5537 0.216,0.1786 0.431,0.3512 0.646,0.5181 0.215,0.167 0.431,0.3281 0.646,0.4838 0.215,0.1557 0.431,0.3059 0.646,0.4508 0.215,0.1449 0.43,0.2846 0.646,0.4192 0.215,0.1346 0.43,0.2641 0.646,0.3888 0.215,0.1248 0.43,0.2447 0.645,0.3601 0.216,0.1154 0.431,0.2262 0.646,0.3327 0.216,0.1065 0.431,0.2087 0.646,0.3068 0.215,0.0981 0.431,0.1921 0.646,0.2823 0.215,0.0901 0.431,0.1764 0.646,0.2592 0.215,0.0827 0.43,0.1618 0.646,0.2375 0.215,0.0757 0.43,0.1481 0.646,0.2173 0.215,0.0692 0.43,0.1352 0.645,0.1983 0.216,0.0631 0.431,0.1232 0.646,0.1806 0.216,0.0574 0.431,0.1121 0.646,0.1642 0.215,0.0522 0.431,0.1018 0.646,0.149 0.215,0.0473 0.431,0.0922 0.646,0.1349 0.215,0.0428 0.43,0.0833 0.646,0.1219 0.215,0.0386 0.43,0.0752 0.646,0.11 0.215,0.0347 0.43,0.0677 0.646,0.0989 0.215,0.0313 0.43,0.0609 0.645,0.089 0.216,0.028 0.431,0.0545 0.646,0.0797 0.216,0.0251 0.431,0.0489 0.646,0.0713 0.215,0.0225 0.431,0.0437 0.646,0.0637 0.215,0.0201 0.431,0.039 0.646,0.0568 0.215,0.0179 0.43,0.0347 0.646,0.0506 0.215,0.0159 0.43,0.0308 0.646,0.0449 0.215,0.014 0.43,0.0273 0.645,0.0397 0.216,0.0125 0.431,0.0242 0.646,0.0352 0.216,0.011 0.431,0.0214 0.646,0.0311 0.215,0.0097 0.431,0.0188 0.646,0.0274 0.215,0.0085 0.431,0.0165 0.646,0.024 0.215,0.0076 0.43,0.0146 0.646,0.0212 0.215,0.0066 0.43,0.0127 0.646,0.0185 0.215,0.0058 0.43,0.0112 0.645,0.0162 0.216,0.005 0.431,0.0097 0.646,0.0141 0.216,0.0044 0.431,0.0085 0.646,0.0124 0.216,0.0038 0.431,0.0073 0.646,0.0107 0.215,0.0033 0.431,0.0064 0.646,0.0093 0.215,0.0028 0.431,0.0055 0.646,0.008 0.215,0.0025 0.43,0.0048 0.646,0.007 0.215,0.0021 0.43,0.0041 0.646,0.006 0.215,0.0019 0.43,0.0036 0.645,0.0052 0.216,0.0016 0.431,0.0031 0.646,0.0044 0.216,0.0014 0.431,0.0027 0.646,0.0039 0.215,0.0011 0.431,0.0022 0.646,0.0032 0.215,0.001 0.431,0.002 0.646,0.0028 0.215,9e-4 0.43,0.0017 0.646,0.0024 0.215,8e-4 0.43,0.0014 0.646,0.0021 0.215,6e-4 0.43,0.0012 0.645,0.0017 0.216,5e-4 0.431,0.001 0.646,0.0015 0.216,4e-4 0.431,8e-4 0.646,0.0012 0.215,4e-4 0.431,7e-4 0.646,0.0011 0.215,3e-4 0.431,6e-4 0.646,9e-4 0.215,2e-4 0.43,5e-4 0.646,7e-4 0.215,2e-4 0.43,4e-4 0.646,6e-4 0.215,2e-4 0.43,4e-4 0.646,6e-4 0.215,10e-5 0.43,3e-4 0.645,4e-4 0.216,10e-5 0.431,3e-4 0.646,4e-4 0.216,10e-5 0.431,2e-4 0.646,3e-4 0.215,1e-4 0.431,2e-4 0.646,2e-4 0.215,10e-5 0.431,2e-4 0.646,3e-4 0.215,0 0.43,1e-4 0.646,1e-4 0.215,10e-5 0.43,10e-5 0.646,2e-4 0.215,0 0.43,1e-4 0.645,1e-4 0.216,0 0.431,1e-4 0.646,1e-4 0.216,0 0.431,10e-5 0.646,10e-5 0.215,0 0.431,0 0.646,1e-4 0.215,0 0.431,0 0.646,0 0.215,0 0.43,0 0.646,1e-4 0.215,0 0.43,0 0.646,0 0.215,0 0.43,0 0.645,0 0.216,0 0.431,0 0.646,1e-4 0.216,0 0.431,0 0.646,0 0.215,0 0.431,0 0.646,0 0.215,0 0.431,0 0.646,0 0.215,0 0.431,0 0.646,0 0.215,0 0.43,0 0.646,0 0.215,0 0.43,0 0.646,0 0.215,0 0.43,0 0.645,0 0.216,0 0.431,0 0.646,0 0.216,0 0.431,0 0.646,0 0.215,0 0.431,0 0.646,0 0.215,0 0.431,1e-4 0.646,1e-4 0.215,0 0.43,0 0.646,0"
       title="t (1/(0.8*sqrt(2*pi)))*exp(-((t-0.5)*(t-0.5))/(2*0.8*0.8))"
       id="path6714" />
    <path
       style="fill:#000000;fill-opacity:1;stroke:#000000;stroke-width:0.453;stroke-dasharray:none"
       d="M 14.523228,84.416259 H 200.60208"
       id="path7136" />
    <path
       style="fill:#000000;fill-opacity:1;stroke:#0000ff;stroke-width:0.443;stroke-dasharray:1.77199996,1.77199996;stroke-dashoffset:0;stroke-opacity:1"
       d="M 124.71821,24.222136 V 84.311987"
       id="path7570" />
    <text
       xml:space="preserve"
       style="font-size:3.88056px;line-height:0;fill:#ff0000;fill-opacity:1;stroke:#ff0000;stroke-width:0.1;stroke-dasharray:none;stroke-dashoffset:0;stroke-opacity:1"
       x="36.126694"
       y="60.105309"
       id="text7626"><tspan
         sodipodi:role="line"
         id="tspan7624"
         style="font-style:normal;font-variant:normal;font-weight:normal;font-stretch:normal;font-size:3.88056px;font-family:Arial;-inkscape-font-specification:Arial;fill:#ff0000;fill-opacity:1;stroke:#ff0000;stroke-width:0.1;stroke-dasharray:none;stroke-opacity:1"
         x="36.126694"
         y="60.105309">Prior Belief</tspan></text>
    <text
       xml:space="preserve"
       style="font-size:3.88056px;line-height:0;fill:#0000ff;fill-opacity:1;stroke:#0000ff;stroke-width:0.1;stroke-dasharray:none;stroke-dashoffset:0;stroke-opacity:1"
       x="128.56244"
       y="36.032524"
       id="text7626-1-0"><tspan
         sodipodi:role="line"
         id="tspan7624-9-1"
         style="font-style:normal;font-variant:normal;font-weight:normal;font-stretch:normal;font-size:3.88056px;font-family:Arial;-inkscape-font-specification:Arial;fill:#0000ff;fill-opacity:1;stroke:#0000ff;stroke-width:0.1;stroke-dasharray:none;stroke-opacity:1"
         x="128.56244"
         y="36.032524">True Value</tspan></text>
    <rect
       style="fill:#0000ff;fill-opacity:0;stroke:#0000ff;stroke-width:0.416;stroke-dasharray:1.66399607, 1.66399607;stroke-dashoffset:0;stroke-opacity:0"
       id="rect12943"
       width="167.65807"
       height="62.140049"
       x="23.779057"
       y="22.25025" />
  </g>
</svg>
